<svg width="180" height="180" viewBox="0 0 180 180" fill="none" xmlns="http://www.w3.org/2000/svg">
<rect width="180" height="180" fill="url(#paint0_linear_5467_23898)"/>
<rect width="180" height="180" fill="url(#paint1_linear_5467_23898)" fill-opacity="0.3"/>
<path fill-rule="evenodd" clip-rule="evenodd" d="M115.47 67.7515C117.539 59.4277 120.447 57.2142 128.709 55.1105C130.158 54.7466 130.158 52.7794 128.709 52.4155C120.447 50.3118 117.539 47.4235 115.47 39.0997C115.117 37.6556 112.982 37.6556 112.628 39.0997C110.56 47.4235 107.651 50.3118 99.3895 52.4155C97.9407 52.7794 97.9407 54.7466 99.3895 55.1105C107.651 57.2142 110.56 59.4277 112.628 67.7515C112.982 69.1956 115.117 69.1956 115.47 67.7515ZM144.651 85.2189C130.239 94.9359 110.891 106.769 92.6605 113.531C74.3817 120.305 55.3733 125.145 38.1162 127.164C33.8596 127.675 31.8165 122.153 35.3798 119.77C36.4862 119.023 37.5638 118.299 38.6128 117.594L38.6167 117.592C64.8813 99.9483 73.1559 94.3898 63.181 45.4508C62.7189 43.2496 64.0688 41.6199 65.8079 41.0362C67.4497 40.3673 69.5415 40.72 70.6238 42.6901C94.9324 86.3146 104.829 85.1418 136.24 81.4199L136.242 81.4197C137.501 81.2704 138.796 81.1171 140.127 80.9623C144.383 80.4516 148.202 82.8474 144.651 85.231V85.2189ZM113.277 121.272C113.277 132.266 110.468 138.675 105.044 140.876C100.228 142.834 94.731 140.585 87.2517 133.142C80.7088 126.623 68.0609 124.41 68.0609 124.41C68.0609 124.41 113.277 111.458 113.277 121.272Z" fill="white"/>
<defs>
<linearGradient id="paint0_linear_5467_23898" x1="169.499" y1="160.276" x2="-6.74945" y2="107.825" gradientUnits="userSpaceOnUse">
<stop stop-color="#142FE6"/>
<stop offset="1" stop-color="#7B61FF"/>
</linearGradient>
<linearGradient id="paint1_linear_5467_23898" x1="149.07" y1="90.0204" x2="188.596" y2="140.064" gradientUnits="userSpaceOnUse">
<stop stop-color="#142FE6" stop-opacity="0.5"/>
<stop offset="1" stop-color="#A2E5FF"/>
</linearGradient>
</defs>
</svg>
