<svg width="64" height="64" viewBox="0 0 64 64" fill="none" xmlns="http://www.w3.org/2000/svg">
<rect width="64" height="64" rx="18.0132" fill="white"/>
<path fill-rule="evenodd" clip-rule="evenodd" d="M41.1643 24.292C41.9111 21.353 42.9615 20.3331 45.9449 19.5903C46.4681 19.4619 46.4681 18.7673 45.9449 18.6388C42.9615 17.896 41.9111 16.8762 41.1643 13.9371C41.0365 13.4272 40.2657 13.4272 40.1379 13.9371C39.391 16.8762 38.3406 17.896 35.3572 18.6388C34.834 18.7673 34.834 19.4619 35.3572 19.5903C38.3406 20.3331 39.391 21.353 40.1379 24.292C40.2657 24.8019 41.0365 24.8019 41.1643 24.292ZM51.4312 30.3001C46.3072 33.7551 39.4276 37.9624 32.9458 40.3666C26.4467 42.7751 19.6881 44.4961 13.5522 45.2139C12.0388 45.3955 11.3124 43.4324 12.5793 42.5849C12.9732 42.319 13.3568 42.0613 13.7302 41.8105C23.0687 35.5372 26.0108 33.5609 22.4642 16.1604C22.2999 15.3777 22.7798 14.7983 23.3982 14.5907C23.9819 14.3529 24.7257 14.4783 25.1105 15.1788C33.7536 30.6897 37.2725 30.2727 48.4408 28.9494L48.4414 28.9493C48.8892 28.8962 49.3494 28.8417 49.8227 28.7867C51.3361 28.6051 52.6939 29.4569 51.4312 30.3044V30.3001ZM40.2762 43.119C40.2762 47.028 39.2773 49.3068 37.3488 50.0894C35.6364 50.7856 33.6819 49.9857 31.0226 47.3393C28.6963 45.0216 24.1992 44.2346 24.1992 44.2346C24.1992 44.2346 40.2762 39.6295 40.2762 43.119Z" fill="#444C86"/>
</svg>
