<svg width="30" height="29" viewBox="0 0 30 29" fill="none" xmlns="http://www.w3.org/2000/svg">
<g clip-path="url(#clip0_5444_19031)">
<path fill-rule="evenodd" clip-rule="evenodd" d="M27.9214 14.7736C27.9214 13.8155 27.8354 12.8942 27.6757 12.0098H14.9497V17.2365H22.2217C21.9085 18.9255 20.9565 20.3566 19.5254 21.3147V24.705H23.8923C26.4473 22.3527 27.9214 18.8887 27.9214 14.7736Z" fill="#4285F4"/>
<path fill-rule="evenodd" clip-rule="evenodd" d="M14.949 27.9751C18.5972 27.9751 21.6559 26.7652 23.8915 24.7015L19.5247 21.3112C18.3147 22.1219 16.767 22.601 14.949 22.601C11.4297 22.601 8.45085 20.224 7.3883 17.0303H2.87402V20.5311C5.09738 24.9472 9.66694 27.9751 14.949 27.9751Z" fill="#34A853"/>
<path fill-rule="evenodd" clip-rule="evenodd" d="M7.38898 17.0329C7.11874 16.2222 6.96519 15.3562 6.96519 14.4656C6.96519 13.5751 7.11874 12.7091 7.38898 11.8983V8.39746H2.8747C1.95956 10.2216 1.4375 12.2853 1.4375 14.4656C1.4375 16.646 1.95956 18.7097 2.8747 20.5338L7.38898 17.0329Z" fill="#FBBC05"/>
<path fill-rule="evenodd" clip-rule="evenodd" d="M14.949 6.32727C16.9328 6.32727 18.7139 7.00902 20.1143 8.34795L23.9898 4.47242C21.6497 2.29205 18.5911 0.953125 14.949 0.953125C9.66694 0.953125 5.09738 3.98107 2.87402 8.39708L7.3883 11.898C8.45085 8.70418 11.4297 6.32727 14.949 6.32727Z" fill="#EA4335"/>
</g>
<defs>
<clipPath id="clip0_5444_19031">
<rect width="28.1992" height="28.1992" fill="white" transform="translate(0.850586 0.366211)"/>
</clipPath>
</defs>
</svg>
