<svg viewBox="0 0 120 32" fill="none" xmlns="http://www.w3.org/2000/svg">
<path fill-rule="evenodd" clip-rule="evenodd" d="M22.6291 11.2188C23.1305 9.24288 23.8358 8.55724 25.8389 8.05785C26.1902 7.97147 26.1902 7.50448 25.8389 7.4181C23.8358 6.91871 23.1305 6.23307 22.6291 4.25712C22.5433 3.91429 22.0257 3.91429 21.9399 4.25712C21.4384 6.23307 20.7332 6.91871 18.73 7.4181C18.3787 7.50448 18.3787 7.97147 18.73 8.05785C20.7332 8.55724 21.4384 9.24288 21.9399 11.2188C22.0257 11.5617 22.5433 11.5617 22.6291 11.2188ZM17.1109 22.026C21.463 20.4096 26.0822 17.581 29.5227 15.2581V15.2611C30.3705 14.6913 29.4588 14.1185 28.4427 14.2406C28.1247 14.2777 27.8156 14.3143 27.5148 14.35C20.016 15.2397 17.6533 15.5201 11.8501 5.09188C11.5917 4.62092 11.0923 4.53661 10.7003 4.69651C10.2852 4.83605 9.9629 5.22561 10.0732 5.7518C12.4546 17.4504 10.4791 18.7791 4.20894 22.9967C3.95822 23.1653 3.70063 23.3386 3.43619 23.5173C2.58551 24.0871 3.07327 25.407 4.08944 25.2849C8.20928 24.8023 12.7472 23.6452 17.1109 22.026ZM34.8539 10.7497C34.5172 10.4125 34.3489 9.9974 34.3489 9.49798C34.3489 8.99856 34.5172 8.58342 34.8539 8.24943C35.1906 7.91545 35.6052 7.74377 36.1039 7.74377C36.6027 7.74377 36.9924 7.91232 37.329 8.24943C37.6657 8.58654 37.834 9.00168 37.834 9.49798C37.834 9.99428 37.6657 10.4125 37.329 10.7497C36.9924 11.0868 36.584 11.2553 36.1039 11.2553C35.6239 11.2553 35.1906 11.0868 34.8539 10.7497ZM37.4474 13.0093H34.7104V26.2564H37.4474V13.0093ZM51.2326 15.3666C50.7681 14.5176 50.1228 13.8777 49.2999 13.4438C48.4769 13.01 47.5448 12.7946 46.5037 12.7946C45.7181 12.7946 44.9793 12.9475 44.281 13.2503C43.5827 13.5531 43.0123 13.9776 42.5634 14.5238V13.01H39.8264V26.2571H42.5634V18.8501C42.5634 17.6639 42.8658 16.7556 43.4643 16.122C44.0659 15.4883 44.8795 15.1731 45.902 15.1731C46.9245 15.1731 47.735 15.4883 48.3273 16.122C48.9196 16.7556 49.2157 17.6639 49.2157 18.8501V26.2571H51.9278V18.4443C51.9278 17.2426 51.6971 16.2156 51.2326 15.3666ZM56.2075 25.9103C55.3845 25.5326 54.7299 25.0207 54.2498 24.3714C53.7697 23.7222 53.5141 22.998 53.4829 22.1958H56.3166C56.3633 22.7577 56.6345 23.2259 57.1208 23.6036C57.6071 23.9812 58.2212 24.1685 58.9569 24.1685C59.6926 24.1685 60.3223 24.0218 60.7462 23.7222C61.1702 23.4256 61.3822 23.0448 61.3822 22.5798C61.3822 22.0835 61.1453 21.7151 60.6745 21.4748C60.2007 21.2344 59.4526 20.9691 58.4301 20.682C57.4388 20.4104 56.6283 20.1451 56.0048 19.8891C55.3814 19.6332 54.8421 19.2399 54.3838 18.7124C53.9287 18.1817 53.698 17.4857 53.698 16.621C53.698 15.9156 53.9069 15.2695 54.3215 14.6858C54.7361 14.1021 55.3346 13.6401 56.1108 13.303C56.887 12.9659 57.7786 12.7974 58.7886 12.7974C60.2942 12.7974 61.5069 13.1782 62.4265 13.9398C63.3461 14.7014 63.8386 15.7377 63.9041 17.0549H61.1671C61.1203 16.4618 60.8803 15.9905 60.447 15.6378C60.0168 15.2851 59.4307 15.1072 58.6951 15.1072C57.9594 15.1072 57.4232 15.2445 57.0367 15.5161C56.6532 15.7876 56.46 16.1497 56.46 16.5992C56.46 16.9519 56.5878 17.2484 56.8434 17.4888C57.099 17.7291 57.4107 17.9195 57.7786 18.0538C58.1464 18.1911 58.6919 18.3628 59.412 18.5719C60.3722 18.8279 61.1608 19.09 61.7781 19.3522C62.3953 19.6176 62.9252 20.0046 63.3741 20.5196C63.823 21.0347 64.0537 21.7151 64.0724 22.5641C64.0724 23.3195 63.8635 23.9906 63.4489 24.5837C63.0312 25.1767 62.4452 25.6418 61.6845 25.9789C60.9239 26.316 60.0324 26.4846 59.0068 26.4846C57.9812 26.4846 57.0335 26.2973 56.2106 25.9196L56.2075 25.9103ZM69.5928 15.2504V22.5794C69.5928 23.0757 69.7081 23.4315 69.9419 23.65C70.1726 23.8654 70.5685 23.9746 71.1296 23.9746H72.8098V26.2595H70.6464C69.412 26.2595 68.4675 25.9723 67.8128 25.3949C67.1551 24.8174 66.8277 23.881 66.8277 22.5825V15.2504H65.266V13.0155H66.8277V9.72242H69.5897V13.0155H72.8098V15.2504H69.5928ZM86.4642 20.657H76.3548C76.4327 21.7151 76.8255 22.5641 77.53 23.2071C78.2345 23.847 79.098 24.1685 80.1236 24.1685C81.595 24.1685 82.6362 23.5505 83.244 22.3176H86.1992C85.8002 23.5349 85.0739 24.5337 84.0265 25.311C82.9759 26.0882 81.676 26.4784 80.1236 26.4784C78.858 26.4784 77.7264 26.1943 76.7258 25.6262C75.7251 25.0581 74.9395 24.2559 74.3722 23.2228C73.8048 22.1896 73.5212 20.991 73.5212 19.6269C73.5212 18.2629 73.7955 17.0674 74.3504 16.0311C74.9021 14.9979 75.6783 14.1988 76.679 13.6401C77.6796 13.0783 78.8299 12.7974 80.1267 12.7974C81.4235 12.7974 82.4865 13.0689 83.4653 13.6152C84.4411 14.1614 85.2017 14.9261 85.7472 15.9125C86.2896 16.8988 86.5639 18.0319 86.5639 19.3148C86.5639 19.8111 86.5328 20.2606 86.4673 20.6601L86.4642 20.657ZM83.7023 18.4439C83.6867 17.4326 83.3251 16.6242 82.6206 16.0155C81.9161 15.4068 81.0432 15.1009 80.002 15.1009C79.0575 15.1009 78.2501 15.4006 77.5768 16.003C76.9034 16.6054 76.5044 17.417 76.3766 18.4439H83.6991H83.7023ZM90.7969 13.6495C89.8461 14.2176 89.0917 15.0135 88.5399 16.0405H88.5368C87.9819 17.0643 87.7076 18.2442 87.7076 19.5739C87.7076 20.9036 87.9851 22.0959 88.5368 23.1447C89.0886 24.1966 89.8367 25.0144 90.7813 25.5981C91.7258 26.1818 92.767 26.4752 93.9048 26.4752C94.9304 26.4752 95.8407 26.2692 96.6418 25.851C97.4429 25.4327 98.0758 24.9114 98.5402 24.2871V26.2599H101.302V13.0127H98.5402V14.9355C98.0758 14.3268 97.4554 13.818 96.6792 13.4091C95.903 13.0002 94.9959 12.7974 93.9547 12.7974C92.8013 12.7974 91.7508 13.0814 90.7969 13.6495ZM96.5015 15.7034C97.1094 16.0561 97.6019 16.568 97.9791 17.2422H97.9822C98.3594 17.9164 98.5465 18.7124 98.5465 19.6238C98.5465 20.5352 98.3594 21.3343 97.9822 22.0148C97.605 22.6952 97.1125 23.2134 96.5046 23.5661C95.8937 23.9188 95.2234 24.0967 94.5345 24.0967C93.8456 24.0967 93.1941 23.9188 92.5768 23.5567C91.9596 23.1947 91.464 22.6703 91.0868 21.9804C90.7096 21.2937 90.5226 20.4915 90.5226 19.577C90.5226 18.6624 90.7096 17.8727 91.0868 17.2079C91.464 16.543 91.9565 16.0373 92.5644 15.694C93.1722 15.3475 93.8269 15.1758 94.5314 15.1758C95.2359 15.1758 95.8936 15.3506 96.5015 15.7034ZM103.285 16.0402C103.837 15.0132 104.591 14.2173 105.542 13.6492C106.496 13.0811 107.556 12.7971 108.725 12.7971C109.588 12.7971 110.442 12.9844 111.284 13.362C112.122 13.7397 112.793 14.2391 113.288 14.8634V8.46772H116.05V26.2596H113.288V24.265C112.839 24.9049 112.219 25.4355 111.427 25.8507C110.635 26.2658 109.725 26.4749 108.703 26.4749C107.549 26.4749 106.496 26.1815 105.545 25.5978C104.591 25.0141 103.84 24.1963 103.288 23.1444C102.736 22.0957 102.459 20.9033 102.459 19.5736C102.459 18.2439 102.733 17.064 103.288 16.0402H103.285ZM112.721 17.2419C112.344 16.5677 111.851 16.0558 111.243 15.7031C110.635 15.3504 109.978 15.1756 109.273 15.1756C108.569 15.1756 107.914 15.3472 107.306 15.6937C106.698 16.0371 106.206 16.5427 105.829 17.2076C105.451 17.8724 105.264 18.6621 105.264 19.5767C105.264 20.4913 105.451 21.2935 105.829 21.9802C106.206 22.67 106.701 23.1944 107.319 23.5565C107.936 23.9185 108.587 24.0965 109.276 24.0965C109.965 24.0965 110.635 23.9185 111.246 23.5658C111.854 23.2131 112.347 22.695 112.724 22.0145C113.101 21.334 113.288 20.535 113.288 19.6235C113.288 18.7121 113.101 17.9161 112.724 17.2419H112.721ZM22.0355 23.8747C22.0355 26.5028 21.3648 28.0348 20.0699 28.561C18.9202 29.0291 17.6079 28.4913 15.8223 26.7121C14.2603 25.1539 11.2408 24.6248 11.2408 24.6248C11.2408 24.6248 22.0355 21.5286 22.0355 23.8747Z" fill="url(#paint0_linear_5070_3059)"/>
<path fill-rule="evenodd" clip-rule="evenodd" d="M22.6291 11.2188C23.1305 9.24288 23.8358 8.55724 25.8389 8.05785C26.1902 7.97147 26.1902 7.50448 25.8389 7.4181C23.8358 6.91871 23.1305 6.23307 22.6291 4.25712C22.5433 3.91429 22.0257 3.91429 21.9399 4.25712C21.4384 6.23307 20.7332 6.91871 18.73 7.4181C18.3787 7.50448 18.3787 7.97147 18.73 8.05785C20.7332 8.55724 21.4384 9.24288 21.9399 11.2188C22.0257 11.5617 22.5433 11.5617 22.6291 11.2188ZM17.1109 22.026C21.463 20.4096 26.0822 17.581 29.5227 15.2581V15.2611C30.3705 14.6913 29.4588 14.1185 28.4427 14.2406C28.1247 14.2777 27.8156 14.3143 27.5148 14.35C20.016 15.2397 17.6533 15.5201 11.8501 5.09188C11.5917 4.62092 11.0923 4.53661 10.7003 4.69651C10.2852 4.83605 9.9629 5.22561 10.0732 5.7518C12.4546 17.4504 10.4791 18.7791 4.20894 22.9967C3.95822 23.1653 3.70063 23.3386 3.43619 23.5173C2.58551 24.0871 3.07327 25.407 4.08944 25.2849C8.20928 24.8023 12.7472 23.6452 17.1109 22.026ZM34.8539 10.7497C34.5172 10.4125 34.3489 9.9974 34.3489 9.49798C34.3489 8.99856 34.5172 8.58342 34.8539 8.24943C35.1906 7.91545 35.6052 7.74377 36.1039 7.74377C36.6027 7.74377 36.9924 7.91232 37.329 8.24943C37.6657 8.58654 37.834 9.00168 37.834 9.49798C37.834 9.99428 37.6657 10.4125 37.329 10.7497C36.9924 11.0868 36.584 11.2553 36.1039 11.2553C35.6239 11.2553 35.1906 11.0868 34.8539 10.7497ZM37.4474 13.0093H34.7104V26.2564H37.4474V13.0093ZM51.2326 15.3666C50.7681 14.5176 50.1228 13.8777 49.2999 13.4438C48.4769 13.01 47.5448 12.7946 46.5037 12.7946C45.7181 12.7946 44.9793 12.9475 44.281 13.2503C43.5827 13.5531 43.0123 13.9776 42.5634 14.5238V13.01H39.8264V26.2571H42.5634V18.8501C42.5634 17.6639 42.8658 16.7556 43.4643 16.122C44.0659 15.4883 44.8795 15.1731 45.902 15.1731C46.9245 15.1731 47.735 15.4883 48.3273 16.122C48.9196 16.7556 49.2157 17.6639 49.2157 18.8501V26.2571H51.9278V18.4443C51.9278 17.2426 51.6971 16.2156 51.2326 15.3666ZM56.2075 25.9103C55.3845 25.5326 54.7299 25.0207 54.2498 24.3714C53.7697 23.7222 53.5141 22.998 53.4829 22.1958H56.3166C56.3633 22.7577 56.6345 23.2259 57.1208 23.6036C57.6071 23.9812 58.2212 24.1685 58.9569 24.1685C59.6926 24.1685 60.3223 24.0218 60.7462 23.7222C61.1702 23.4256 61.3822 23.0448 61.3822 22.5798C61.3822 22.0835 61.1453 21.7151 60.6745 21.4748C60.2007 21.2344 59.4526 20.9691 58.4301 20.682C57.4388 20.4104 56.6283 20.1451 56.0048 19.8891C55.3814 19.6332 54.8421 19.2399 54.3838 18.7124C53.9287 18.1817 53.698 17.4857 53.698 16.621C53.698 15.9156 53.9069 15.2695 54.3215 14.6858C54.7361 14.1021 55.3346 13.6401 56.1108 13.303C56.887 12.9659 57.7786 12.7974 58.7886 12.7974C60.2942 12.7974 61.5069 13.1782 62.4265 13.9398C63.3461 14.7014 63.8386 15.7377 63.9041 17.0549H61.1671C61.1203 16.4618 60.8803 15.9905 60.447 15.6378C60.0168 15.2851 59.4307 15.1072 58.6951 15.1072C57.9594 15.1072 57.4232 15.2445 57.0367 15.5161C56.6532 15.7876 56.46 16.1497 56.46 16.5992C56.46 16.9519 56.5878 17.2484 56.8434 17.4888C57.099 17.7291 57.4107 17.9195 57.7786 18.0538C58.1464 18.1911 58.6919 18.3628 59.412 18.5719C60.3722 18.8279 61.1608 19.09 61.7781 19.3522C62.3953 19.6176 62.9252 20.0046 63.3741 20.5196C63.823 21.0347 64.0537 21.7151 64.0724 22.5641C64.0724 23.3195 63.8635 23.9906 63.4489 24.5837C63.0312 25.1767 62.4452 25.6418 61.6845 25.9789C60.9239 26.316 60.0324 26.4846 59.0068 26.4846C57.9812 26.4846 57.0335 26.2973 56.2106 25.9196L56.2075 25.9103ZM69.5928 15.2504V22.5794C69.5928 23.0757 69.7081 23.4315 69.9419 23.65C70.1726 23.8654 70.5685 23.9746 71.1296 23.9746H72.8098V26.2595H70.6464C69.412 26.2595 68.4675 25.9723 67.8128 25.3949C67.1551 24.8174 66.8277 23.881 66.8277 22.5825V15.2504H65.266V13.0155H66.8277V9.72242H69.5897V13.0155H72.8098V15.2504H69.5928ZM86.4642 20.657H76.3548C76.4327 21.7151 76.8255 22.5641 77.53 23.2071C78.2345 23.847 79.098 24.1685 80.1236 24.1685C81.595 24.1685 82.6362 23.5505 83.244 22.3176H86.1992C85.8002 23.5349 85.0739 24.5337 84.0265 25.311C82.9759 26.0882 81.676 26.4784 80.1236 26.4784C78.858 26.4784 77.7264 26.1943 76.7258 25.6262C75.7251 25.0581 74.9395 24.2559 74.3722 23.2228C73.8048 22.1896 73.5212 20.991 73.5212 19.6269C73.5212 18.2629 73.7955 17.0674 74.3504 16.0311C74.9021 14.9979 75.6783 14.1988 76.679 13.6401C77.6796 13.0783 78.8299 12.7974 80.1267 12.7974C81.4235 12.7974 82.4865 13.0689 83.4653 13.6152C84.4411 14.1614 85.2017 14.9261 85.7472 15.9125C86.2896 16.8988 86.5639 18.0319 86.5639 19.3148C86.5639 19.8111 86.5328 20.2606 86.4673 20.6601L86.4642 20.657ZM83.7023 18.4439C83.6867 17.4326 83.3251 16.6242 82.6206 16.0155C81.9161 15.4068 81.0432 15.1009 80.002 15.1009C79.0575 15.1009 78.2501 15.4006 77.5768 16.003C76.9034 16.6054 76.5044 17.417 76.3766 18.4439H83.6991H83.7023ZM90.7969 13.6495C89.8461 14.2176 89.0917 15.0135 88.5399 16.0405H88.5368C87.9819 17.0643 87.7076 18.2442 87.7076 19.5739C87.7076 20.9036 87.9851 22.0959 88.5368 23.1447C89.0886 24.1966 89.8367 25.0144 90.7813 25.5981C91.7258 26.1818 92.767 26.4752 93.9048 26.4752C94.9304 26.4752 95.8407 26.2692 96.6418 25.851C97.4429 25.4327 98.0758 24.9114 98.5402 24.2871V26.2599H101.302V13.0127H98.5402V14.9355C98.0758 14.3268 97.4554 13.818 96.6792 13.4091C95.903 13.0002 94.9959 12.7974 93.9547 12.7974C92.8013 12.7974 91.7508 13.0814 90.7969 13.6495ZM96.5015 15.7034C97.1094 16.0561 97.6019 16.568 97.9791 17.2422H97.9822C98.3594 17.9164 98.5465 18.7124 98.5465 19.6238C98.5465 20.5352 98.3594 21.3343 97.9822 22.0148C97.605 22.6952 97.1125 23.2134 96.5046 23.5661C95.8937 23.9188 95.2234 24.0967 94.5345 24.0967C93.8456 24.0967 93.1941 23.9188 92.5768 23.5567C91.9596 23.1947 91.464 22.6703 91.0868 21.9804C90.7096 21.2937 90.5226 20.4915 90.5226 19.577C90.5226 18.6624 90.7096 17.8727 91.0868 17.2079C91.464 16.543 91.9565 16.0373 92.5644 15.694C93.1722 15.3475 93.8269 15.1758 94.5314 15.1758C95.2359 15.1758 95.8936 15.3506 96.5015 15.7034ZM103.285 16.0402C103.837 15.0132 104.591 14.2173 105.542 13.6492C106.496 13.0811 107.556 12.7971 108.725 12.7971C109.588 12.7971 110.442 12.9844 111.284 13.362C112.122 13.7397 112.793 14.2391 113.288 14.8634V8.46772H116.05V26.2596H113.288V24.265C112.839 24.9049 112.219 25.4355 111.427 25.8507C110.635 26.2658 109.725 26.4749 108.703 26.4749C107.549 26.4749 106.496 26.1815 105.545 25.5978C104.591 25.0141 103.84 24.1963 103.288 23.1444C102.736 22.0957 102.459 20.9033 102.459 19.5736C102.459 18.2439 102.733 17.064 103.288 16.0402H103.285ZM112.721 17.2419C112.344 16.5677 111.851 16.0558 111.243 15.7031C110.635 15.3504 109.978 15.1756 109.273 15.1756C108.569 15.1756 107.914 15.3472 107.306 15.6937C106.698 16.0371 106.206 16.5427 105.829 17.2076C105.451 17.8724 105.264 18.6621 105.264 19.5767C105.264 20.4913 105.451 21.2935 105.829 21.9802C106.206 22.67 106.701 23.1944 107.319 23.5565C107.936 23.9185 108.587 24.0965 109.276 24.0965C109.965 24.0965 110.635 23.9185 111.246 23.5658C111.854 23.2131 112.347 22.695 112.724 22.0145C113.101 21.334 113.288 20.535 113.288 19.6235C113.288 18.7121 113.101 17.9161 112.724 17.2419H112.721ZM22.0355 23.8747C22.0355 26.5028 21.3648 28.0348 20.0699 28.561C18.9202 29.0291 17.6079 28.4913 15.8223 26.7121C14.2603 25.1539 11.2408 24.6248 11.2408 24.6248C11.2408 24.6248 22.0355 21.5286 22.0355 23.8747Z" fill="url(#paint1_linear_5070_3059)"/>
<defs>
<linearGradient id="paint0_linear_5070_3059" x1="-5.24203" y1="3.16043" x2="89.4571" y2="66.9482" gradientUnits="userSpaceOnUse">
<stop stop-color="#142FE6"/>
<stop offset="1" stop-color="#7B61FF"/>
</linearGradient>
<linearGradient id="paint1_linear_5070_3059" x1="-2.30333" y1="23.7561" x2="16.037" y2="53.3906" gradientUnits="userSpaceOnUse">
<stop stop-color="#142FE6"/>
<stop offset="1" stop-color="#7B61FF"/>
</linearGradient>
</defs>
</svg>
