<svg width="24" height="24" viewBox="0 0 24 24" fill="none" xmlns="http://www.w3.org/2000/svg">
<path fill-rule="evenodd" clip-rule="evenodd" d="M14.5819 15.9092C14.5819 16.1102 14.502 16.3029 14.3599 16.4451C14.2178 16.5872 14.025 16.6671 13.824 16.6671C13.623 16.6671 13.4302 16.5872 13.2881 16.4451C13.146 16.3029 13.0661 16.1102 13.0661 15.9092V11.6936C13.0661 11.4926 13.146 11.2998 13.2881 11.1577C13.4302 11.0155 13.623 10.9357 13.824 10.9357C14.025 10.9357 14.2178 11.0155 14.3599 11.1577C14.502 11.2998 14.5819 11.4926 14.5819 11.6936V15.9092ZM11.1015 15.9092C11.1015 16.1102 11.0216 16.3029 10.8795 16.4451C10.7374 16.5872 10.5446 16.6671 10.3436 16.6671C10.1426 16.6671 9.9498 16.5872 9.80767 16.4451C9.66553 16.3029 9.58568 16.1102 9.58568 15.9092V11.6936C9.58568 11.4926 9.66553 11.2998 9.80767 11.1577C9.9498 11.0155 10.1426 10.9357 10.3436 10.9357C10.5446 10.9357 10.7374 11.0155 10.8795 11.1577C11.0216 11.2998 11.1015 11.4926 11.1015 11.6936V15.9092ZM9.49811 5.06538C9.49811 4.84204 9.58683 4.62785 9.74475 4.46992C9.90268 4.31199 10.1169 4.22327 10.3402 4.22327H13.8299C14.2939 4.22327 14.672 4.60054 14.672 5.06538V5.8578H9.49811V5.06538ZM18.9886 5.8578H16.3562V5.06538C16.3562 3.67254 15.2236 2.53906 13.8299 2.53906H10.3402C8.94737 2.53906 7.81389 3.67254 7.81389 5.06538V5.8578H5.01053C4.74252 5.8578 4.48549 5.96427 4.29598 6.15378C4.10647 6.34329 4 6.60032 4 6.86833V7.37359C4 7.6416 4.10647 7.89863 4.29598 8.08814C4.48549 8.27765 4.74252 8.38412 5.01053 8.38412H5.12084L5.51832 18.5197C5.53899 19.0416 5.7609 19.5352 6.13752 19.8971C6.51414 20.2589 7.01623 20.4609 7.53853 20.4607H16.6299C17.152 20.4609 17.6539 20.2589 18.0303 19.8969C18.4066 19.535 18.6282 19.0414 18.6484 18.5197L19.0476 8.37233C19.3039 8.35919 19.5455 8.24835 19.7226 8.06259C19.8998 7.87683 19.999 7.63027 20 7.37359V6.86833C20 6.31085 19.5469 5.8578 18.9886 5.8578Z" fill="#788391"/>
</svg>
